<svg width="238" height="56" viewBox="0 0 238 56" fill="none" xmlns="http://www.w3.org/2000/svg">
<path d="M85.64 22.88C85.64 22.88 85.4133 22.7467 84.96 22.48C84.5067 22.2133 83.9067 21.92 83.16 21.6C82.4133 21.2533 81.6 20.9467 80.72 20.68C79.84 20.4133 78.9733 20.28 78.12 20.28C77.4533 20.28 76.9067 20.3867 76.48 20.6C76.0533 20.8133 75.84 21.1733 75.84 21.68C75.84 22.16 76.0533 22.5467 76.48 22.84C76.9067 23.1333 77.5067 23.4 78.28 23.64C79.08 23.88 80.0267 24.1733 81.12 24.52C82.88 25.0533 84.4 25.6667 85.68 26.36C86.96 27.0533 87.9467 27.9467 88.64 29.04C89.3333 30.1067 89.68 31.5333 89.68 33.32C89.68 35.0267 89.3733 36.4667 88.76 37.64C88.1467 38.7867 87.32 39.7067 86.28 40.4C85.24 41.0933 84.08 41.6 82.8 41.92C81.52 42.2133 80.2133 42.36 78.88 42.36C77.52 42.36 76.0933 42.2267 74.6 41.96C73.1333 41.6667 71.7067 41.28 70.32 40.8C68.9333 40.2933 67.6667 39.7067 66.52 39.04L69.88 32.2C69.88 32.2 70.1467 32.36 70.68 32.68C71.2133 33 71.92 33.36 72.8 33.76C73.68 34.16 74.6533 34.52 75.72 34.84C76.8133 35.16 77.9067 35.32 79 35.32C79.8533 35.32 80.44 35.2133 80.76 35C81.1067 34.76 81.28 34.4533 81.28 34.08C81.28 33.52 80.9867 33.0933 80.4 32.8C79.8133 32.48 79.04 32.1867 78.08 31.92C77.1467 31.6267 76.1067 31.2933 74.96 30.92C73.3067 30.36 71.9467 29.7333 70.88 29.04C69.8133 28.32 69.0267 27.48 68.52 26.52C68.0133 25.5333 67.76 24.3467 67.76 22.96C67.76 20.8533 68.2533 19.0933 69.24 17.68C70.2267 16.2667 71.52 15.2 73.12 14.48C74.7467 13.7333 76.4933 13.36 78.36 13.36C79.7467 13.36 81.08 13.5333 82.36 13.88C83.6667 14.2 84.88 14.6 86 15.08C87.1467 15.56 88.1467 16.0133 89 16.44L85.64 22.88ZM106.292 42L101.532 34.32L100.012 36V42H92.4122V12.8H100.012V28.76L105.612 20.96H113.612L106.372 30.16L114.332 42H106.292ZM115.693 42V20.96H123.293V42H115.693ZM115.693 19.2V12.8H123.293V19.2H115.693ZM126.979 12.8H134.579V33.64C134.579 34.4133 134.739 35.0133 135.059 35.44C135.405 35.84 135.899 36.04 136.539 36.04C136.859 36.04 137.205 35.9867 137.579 35.88C137.952 35.7733 138.299 35.6267 138.619 35.44L139.579 41.04C138.672 41.4667 137.645 41.8 136.499 42.04C135.379 42.28 134.312 42.4 133.299 42.4C131.272 42.4 129.712 41.88 128.619 40.84C127.525 39.7733 126.979 38.2667 126.979 36.32V12.8ZM141.198 12.8H148.798V33.64C148.798 34.4133 148.958 35.0133 149.278 35.44C149.624 35.84 150.118 36.04 150.758 36.04C151.078 36.04 151.424 35.9867 151.798 35.88C152.171 35.7733 152.518 35.6267 152.838 35.44L153.798 41.04C152.891 41.4667 151.864 41.8 150.718 42.04C149.598 42.28 148.531 42.4 147.518 42.4C145.491 42.4 143.931 41.88 142.838 40.84C141.744 39.7733 141.198 38.2667 141.198 36.32V12.8Z" fill="#14141A"/>
<path d="M177.481 42.24C175.214 42.24 173.267 41.8667 171.641 41.12C170.014 40.3733 168.681 39.3467 167.641 38.04C166.627 36.7333 165.881 35.24 165.401 33.56C164.921 31.8533 164.681 30.0667 164.681 28.2V13.6H172.481V28.2C172.481 29.1333 172.574 30.0267 172.761 30.88C172.947 31.7333 173.241 32.4933 173.641 33.16C174.041 33.8267 174.547 34.36 175.161 34.76C175.801 35.1333 176.574 35.32 177.481 35.32C178.414 35.32 179.201 35.1333 179.841 34.76C180.481 34.36 180.987 33.8267 181.361 33.16C181.761 32.4667 182.054 31.6933 182.241 30.84C182.427 29.9867 182.521 29.1067 182.521 28.2V13.6H190.321V28.2C190.321 30.1733 190.054 32.0133 189.521 33.72C189.014 35.4267 188.241 36.92 187.201 38.2C186.161 39.48 184.827 40.48 183.201 41.2C181.601 41.8933 179.694 42.24 177.481 42.24ZM194.807 42V13.6H207.047C208.434 13.6 209.714 13.88 210.887 14.44C212.061 15 213.074 15.76 213.927 16.72C214.781 17.6533 215.434 18.7067 215.887 19.88C216.367 21.0533 216.607 22.24 216.607 23.44C216.607 25.12 216.207 26.7067 215.407 28.2C214.634 29.6933 213.541 30.92 212.127 31.88C210.741 32.8133 209.114 33.28 207.247 33.28H202.607V42H194.807ZM202.607 26.48H206.727C207.047 26.48 207.354 26.3867 207.647 26.2C207.941 26.0133 208.181 25.6933 208.367 25.24C208.581 24.7867 208.687 24.1867 208.687 23.44C208.687 22.64 208.567 22.0267 208.327 21.6C208.114 21.1467 207.834 20.84 207.487 20.68C207.167 20.4933 206.847 20.4 206.527 20.4H202.607V26.48ZM225.649 42V20.56C224.636 21.28 223.422 21.9333 222.009 22.52V19.44C222.996 18.6133 223.862 17.7467 224.609 16.84C225.356 15.9333 225.969 15 226.449 14.04H228.169C228.649 15 229.249 15.9333 229.969 16.84C230.716 17.7467 231.582 18.6133 232.569 19.44V22.52C231.876 22.2533 231.222 21.96 230.609 21.64C230.022 21.32 229.476 20.9733 228.969 20.6V42H225.649Z" fill="#4FCFC0"/>
<path d="M35.353 55.9017H3.87641C2.8487 55.9004 1.8634 55.4916 1.1367 54.7649C0.41 54.0382 0.00121246 53.053 0 52.0253V14.877C0.00106091 13.8492 0.409809 12.8637 1.13653 12.1369C1.86324 11.4101 2.8486 11.0012 3.87641 11H35.353C36.3808 11.0012 37.3662 11.4101 38.0929 12.1369C38.8196 12.8637 39.2284 13.8492 39.2294 14.877V52.0224C39.2282 53.0501 38.8194 54.0354 38.0927 54.7621C37.366 55.4888 36.3807 55.8976 35.353 55.8988V55.9017Z" fill="#C7BDE8"/>
<path d="M40.5415 46H12.4585C11.5415 45.9989 10.6625 45.6347 10.0142 44.9873C9.3658 44.3399 9.00108 43.4621 9 42.5466V9.45393C9.00095 8.53826 9.3656 7.66039 10.014 7.01287C10.6623 6.36534 11.5415 6.00108 12.4585 6H40.5415C41.4585 6.00108 42.3377 6.36534 42.986 7.01287C43.6344 7.66039 43.9991 8.53826 44 9.45393V42.5466C43.9989 43.4621 43.6342 44.3399 42.9858 44.9873C42.3375 45.6347 41.4585 45.9989 40.5415 46Z" fill="#FFAF60"/>
<path d="M45.2332 33H22.7668C22.0332 32.9991 21.3299 32.6986 20.8112 32.1644C20.2925 31.6302 20.0008 30.9059 20 30.1505V2.84911C20.0008 2.09372 20.2925 1.36949 20.8112 0.835356C21.3299 0.301218 22.0332 0.000779955 22.7668 0H45.2332C45.9668 0.000779955 46.6701 0.301218 47.1888 0.835356C47.7075 1.36949 47.9992 2.09372 48 2.84911V30.1505C47.9992 30.9059 47.7075 31.6302 47.1888 32.1644C46.6701 32.6986 45.9668 32.9991 45.2332 33Z" fill="#9DD9D2"/>
</svg>
