<svg width="48" height="56" viewBox="0 0 48 56" fill="none" xmlns="http://www.w3.org/2000/svg">
<path d="M35.353 55.9017H3.87641C2.8487 55.9005 1.8634 55.4916 1.1367 54.7649C0.41 54.0382 0.00121246 53.053 0 52.0253V14.877C0.00106091 13.8492 0.409809 12.8637 1.13653 12.1369C1.86324 11.4101 2.8486 11.0012 3.87641 11H35.353C36.3808 11.0012 37.3662 11.4101 38.0929 12.1369C38.8196 12.8637 39.2284 13.8492 39.2294 14.877V52.0224C39.2282 53.0501 38.8194 54.0354 38.0927 54.7621C37.366 55.4888 36.3807 55.8976 35.353 55.8988V55.9017Z" fill="#A566D6"/>
<path d="M40.5415 46H12.4585C11.5415 45.9989 10.6625 45.6347 10.0142 44.9873C9.3658 44.3399 9.00108 43.4621 9 42.5466V9.45393C9.00095 8.53826 9.3656 7.66039 10.014 7.01287C10.6623 6.36534 11.5415 6.00108 12.4585 6H40.5415C41.4585 6.00108 42.3377 6.36534 42.986 7.01287C43.6344 7.66039 43.9991 8.53826 44 9.45393V42.5466C43.9989 43.4621 43.6342 44.3399 42.9859 44.9873C42.3375 45.6347 41.4585 45.9989 40.5415 46Z" fill="#FF8811"/>
<path d="M45.2332 33H22.7668C22.0332 32.9991 21.3299 32.6986 20.8112 32.1644C20.2925 31.6302 20.0008 30.9059 20 30.1505V2.84911C20.0008 2.09372 20.2925 1.36949 20.8112 0.835356C21.3299 0.301218 22.0332 0.000779955 22.7668 0H45.2332C45.9668 0.000779955 46.6701 0.301218 47.1888 0.835356C47.7075 1.36949 47.9992 2.09372 48 2.84911V30.1505C47.9992 30.9059 47.7075 31.6302 47.1888 32.1644C46.6701 32.6986 45.9668 32.9991 45.2332 33Z" fill="#4FCFC0"/>
</svg>
